<svg width="1024" height="1536" viewBox="0 0 1024 1536" fill="none" xmlns="http://www.w3.org/2000/svg">
<path d="M352.693 620.866C354.167 620.864 355.642 620.862 357.117 620.859C361.147 620.853 365.177 620.853 369.207 620.855C373.562 620.855 377.918 620.849 382.273 620.845C390.798 620.836 399.323 620.834 407.847 620.833C414.78 620.832 421.713 620.83 428.646 620.827C448.322 620.818 467.997 620.814 487.673 620.815C488.733 620.815 489.793 620.815 490.885 620.815C491.946 620.815 493.007 620.815 494.1 620.815C511.29 620.815 528.48 620.806 545.67 620.792C563.341 620.777 581.011 620.77 598.682 620.771C608.594 620.771 618.507 620.769 628.42 620.758C636.86 620.749 645.301 620.747 653.741 620.753C658.043 620.757 662.345 620.757 666.646 620.748C670.593 620.74 674.541 620.742 678.488 620.75C679.907 620.752 681.325 620.75 682.744 620.745C707.12 620.654 732.385 625.048 751 642C751.757 642.677 752.513 643.354 753.293 644.051C762.922 653.131 772.302 666.637 774 680C774.77 680.186 774.77 680.186 775.555 680.375C809.787 689.596 836.998 713.005 855 743C857.957 748.2 860.552 753.545 863 759C863.814 760.796 863.814 760.796 864.645 762.629C867.608 769.583 869.859 776.566 871.75 783.875C871.949 784.628 872.148 785.381 872.352 786.157C875.76 800.127 876.295 814.325 876.195 828.629C876.192 830.241 876.189 831.854 876.187 833.466C876.179 837.647 876.16 841.827 876.137 846.007C876.117 850.298 876.108 854.59 876.098 858.881C876.076 867.254 876.042 875.627 876 884C876.937 884.144 877.874 884.288 878.839 884.436C891.376 886.673 901.945 897.692 909.438 907.438C913.215 912.927 915.832 918.714 918 925C918.343 925.987 918.686 926.975 919.04 927.992C920.434 932.95 920.344 937.933 920.371 943.051C920.38 944.105 920.389 945.159 920.398 946.245C920.413 948.468 920.422 950.691 920.426 952.914C920.437 956.292 920.487 959.668 920.537 963.045C920.547 965.214 920.554 967.382 920.559 969.551C920.588 971.048 920.588 971.048 920.618 972.576C920.568 980.406 918.621 987.095 913.196 992.945C907.717 997.968 902.829 999.488 895.434 999.313C890.339 998.658 887.75 995.953 884.688 992.063C882.349 987.818 881.877 984.057 881.874 979.261C881.87 978.349 881.866 977.438 881.862 976.499C881.861 975.524 881.86 974.55 881.859 973.547C881.841 971.462 881.821 969.378 881.801 967.293C881.772 964.023 881.75 960.755 881.75 957.485C881.746 954.317 881.712 951.152 881.672 947.984C881.682 946.536 881.682 946.535 881.693 945.057C881.573 938.294 879.988 933.502 876 928C873.782 925.817 873.782 925.817 871.375 924.5C870.62 924.036 869.864 923.572 869.086 923.094C862.778 919.786 854.35 919.85 847.547 921.648C840.828 924.744 835.485 930.008 832.64 936.837C831.37 941.127 831.58 945.532 831.594 949.973C831.583 951.014 831.572 952.055 831.561 953.128C831.515 957.56 831.504 961.992 831.489 966.424C831.473 969.67 831.44 972.915 831.406 976.16C831.409 977.157 831.412 978.154 831.415 979.181C831.35 985.283 830.821 989.978 826.465 994.645C820.521 999.19 816.464 999.993 809 999C802.599 996.557 798.241 992.947 794.84 987.027C792.578 981.568 792.824 975.9 792.797 970.09C792.791 969.127 792.785 968.163 792.78 967.171C792.77 965.133 792.764 963.094 792.76 961.056C792.75 957.973 792.719 954.89 792.688 951.807C792.57 930.243 797.252 914.734 812.172 898.66C818.512 892.437 829.692 884 839 884C838.985 874.193 838.943 864.386 838.868 854.578C838.834 850.022 838.809 845.466 838.805 840.909C838.757 802.059 833.046 769.104 805.312 739.938C796.721 731.543 786.62 725.495 776 720C775.947 720.887 775.895 721.773 775.841 722.687C775.102 734.841 774.225 746.983 773.312 759.125C773.229 760.24 773.145 761.354 773.059 762.503C771.321 785.601 769.354 808.679 767.344 831.755C767.023 835.442 766.703 839.129 766.383 842.816C766.321 843.528 766.259 844.24 766.196 844.973C765.434 853.758 764.708 862.545 764.055 871.34C763.988 872.232 763.921 873.123 763.852 874.042C763.564 877.909 763.285 881.776 763.025 885.644C760.831 915.795 750.523 940.913 727.741 961.536C709.79 976.632 687.16 983.151 664.086 983.147C662.781 983.151 661.477 983.155 660.132 983.158C656.521 983.168 652.91 983.172 649.298 983.175C645.399 983.179 641.5 983.188 637.6 983.197C628.188 983.217 618.776 983.227 609.364 983.236C604.925 983.24 600.486 983.245 596.047 983.251C581.28 983.268 566.513 983.282 551.746 983.289C547.917 983.291 544.089 983.293 540.26 983.295C539.308 983.296 538.357 983.296 537.376 983.297C521.975 983.305 506.574 983.33 491.173 983.363C475.34 983.396 459.507 983.414 443.674 983.417C434.793 983.419 425.912 983.428 417.031 983.453C409.465 983.475 401.899 983.483 394.332 983.474C390.478 983.469 386.624 983.471 382.77 983.49C350.562 983.644 323.762 978.054 300 955C299.316 954.389 298.631 953.778 297.926 953.148C274.823 931.816 271.52 900.344 269.243 870.875C268.937 866.95 268.615 863.026 268.296 859.102C267.574 850.192 266.876 841.28 266.184 832.368C265.945 829.296 265.705 826.225 265.465 823.154C264.326 808.573 263.205 793.99 262.098 779.406C261.233 768.013 260.356 756.62 259.439 745.231C259.316 743.692 259.193 742.153 259.071 740.613C258.909 738.573 258.744 736.533 258.578 734.492C258.49 733.392 258.401 732.293 258.31 731.16C257.976 727.755 257.507 724.383 257 721C229.647 734.72 212.306 755.464 201.25 783.625C194.493 804.528 194.479 825.248 194.725 846.96C194.767 851.037 194.785 855.114 194.805 859.191C194.847 867.128 194.915 875.064 195 883C195.876 883.321 196.752 883.642 197.655 883.973C198.813 884.406 199.971 884.839 201.164 885.285C202.88 885.921 202.88 885.921 204.631 886.571C209.641 888.696 213.748 891.645 218 895C218.624 895.46 219.248 895.92 219.891 896.395C231.764 905.674 238.773 920.363 241 935C241.268 938.601 241.304 942.183 241.301 945.793C241.305 946.783 241.309 947.774 241.314 948.794C241.319 950.87 241.32 952.947 241.316 955.023C241.313 958.19 241.336 961.355 241.361 964.521C241.364 966.549 241.364 968.578 241.363 970.605C241.373 971.544 241.382 972.483 241.391 973.45C241.33 982.165 238.845 987.839 232.879 994.266C228.027 998.744 222.729 999.581 216.359 999.34C211.972 998.708 209.449 996.745 206.662 993.39C202.662 987.644 202.331 982.946 202.469 976.07C202.464 974.525 202.464 974.525 202.459 972.948C202.446 968.573 202.49 964.198 202.53 959.823C202.55 956.613 202.541 953.405 202.531 950.195C202.551 949.222 202.571 948.249 202.591 947.246C202.562 939.683 200.639 933.189 195.592 927.38C189.09 921.542 182.772 920.366 174.289 920.59C166.747 921.53 161.101 925.119 156.254 930.863C152.124 937.901 151.579 944.083 151.629 952.07C151.612 954.204 151.594 956.339 151.576 958.473C151.566 961.808 151.563 965.144 151.564 968.479C151.561 971.718 151.533 974.956 151.504 978.195C151.512 979.189 151.52 980.183 151.529 981.207C151.465 987.132 150.903 990.463 147 995C142.629 998.841 138.437 999.477 132.766 999.402C126.932 998.554 122.02 995.46 118.297 990.926C115.415 986.446 113.886 982.63 113.823 977.26C113.81 976.298 113.797 975.336 113.784 974.345C113.773 972.784 113.773 972.784 113.762 971.191C113.754 970.114 113.746 969.037 113.737 967.927C113.723 965.642 113.713 963.356 113.705 961.071C113.688 957.607 113.644 954.145 113.6 950.682C113.589 948.456 113.581 946.23 113.574 944.004C113.557 942.982 113.539 941.959 113.521 940.906C113.569 924.764 121.368 909.915 132.395 898.438C138.762 892.481 148.878 884 158 884C157.991 883.114 157.982 882.227 157.973 881.314C157.892 872.845 157.832 864.376 157.793 855.907C157.772 851.556 157.744 847.205 157.698 842.854C157.287 802.909 162.085 763.956 187 731C187.661 730.118 188.323 729.237 189.004 728.328C204.57 708.491 225.132 691.093 249.725 683.936C254.738 682.439 258.153 681.351 261.078 676.688C262.422 673.484 263.396 670.181 264.377 666.853C267.359 657.987 274.578 650.535 281 644C281.92 643.06 281.92 643.06 282.859 642.102C301.736 624.273 327.864 620.836 352.693 620.866Z" fill="#2463EF"/>
<path d="M577 184C580.503 186.043 582.774 188.098 584 192C584.506 196.557 584.265 199.601 581.469 203.336C578.846 206.307 576.012 209.062 573.176 211.828C571.421 213.58 569.81 215.328 568.25 217.25C564.186 222.217 560.109 225.658 554.641 229.004C544.762 235.819 535.797 243.553 533.199 255.766C530.085 276.773 531.736 298.89 533 320C533.701 319.993 534.401 319.987 535.123 319.98C548.694 319.87 562.115 319.882 575.625 321.25C576.652 321.35 576.652 321.35 577.7 321.452C623.207 325.888 665.801 338.271 699 371C699.839 371.826 700.678 372.653 701.543 373.504C713.298 385.745 722.096 400.572 729 416C729.531 417.186 730.062 418.372 730.609 419.594C736.506 433.576 740.486 448.221 743.25 463.125C743.401 463.933 743.552 464.742 743.708 465.574C744.194 468.377 744.608 471.182 745 474C745.178 475.273 745.356 476.547 745.54 477.859C747.283 491.516 747.372 505.175 747.371 518.927C747.375 522.889 747.412 526.85 747.449 530.812C747.455 533.372 747.459 535.932 747.461 538.492C747.475 539.656 747.49 540.82 747.504 542.019C747.423 556.781 742.644 567.995 732.688 578.75C719.48 591.306 703.229 593.308 685.8 593.267C684.271 593.271 682.741 593.276 681.211 593.281C677.029 593.293 672.847 593.293 668.664 593.291C664.146 593.29 659.627 593.301 655.108 593.311C646.263 593.327 637.418 593.333 628.573 593.334C621.381 593.335 614.19 593.339 606.998 593.345C586.593 593.363 566.187 593.372 545.782 593.371C544.133 593.371 544.133 593.371 542.451 593.371C541.351 593.37 540.251 593.37 539.117 593.37C521.282 593.37 503.447 593.389 485.612 593.417C467.284 593.446 448.956 593.459 430.628 593.458C420.344 593.457 410.06 593.462 399.777 593.484C391.021 593.502 382.267 593.507 373.511 593.493C369.048 593.486 364.585 593.486 360.121 593.504C356.028 593.519 351.936 593.517 347.843 593.499C346.369 593.496 344.896 593.5 343.422 593.511C326.703 593.629 313.439 589.264 301.188 577.687C290.362 566.262 287.527 554.494 287.602 539.086C287.6 537.745 287.597 536.405 287.593 535.064C287.588 532.258 287.595 529.453 287.609 526.647C287.626 523.129 287.616 519.611 287.599 516.093C287.415 472.46 294.053 424.896 321 389C321.408 388.448 321.817 387.896 322.237 387.327C349.894 350.117 391.016 330.551 436.258 323.879C444.01 322.828 451.777 321.995 459.563 321.25C460.831 321.122 462.099 320.994 463.405 320.863C478.234 319.568 493.128 319.885 508 320C507.98 318.621 507.98 318.621 507.96 317.213C507.839 308.519 507.748 299.825 507.689 291.13C507.658 286.66 507.616 282.192 507.547 277.722C507.482 273.404 507.446 269.086 507.431 264.768C507.42 263.125 507.398 261.483 507.366 259.841C507.187 250.437 507.187 243.158 514 236C514.825 235.106 515.65 234.212 516.5 233.29C519.485 230.12 522.575 227.06 525.672 224C526.803 222.872 527.933 221.744 529.062 220.615C531.414 218.268 533.771 215.925 536.132 213.586C539.161 210.586 542.181 207.577 545.198 204.565C547.524 202.243 549.853 199.924 552.183 197.606C553.298 196.496 554.413 195.386 555.527 194.276C557.078 192.732 558.631 191.192 560.187 189.652C561.512 188.337 561.512 188.337 562.864 186.996C567.047 183.087 571.5 183.368 577 184Z" fill="#2464EF"/>
<path d="M393.324 676.869C394.656 676.863 394.656 676.863 396.015 676.857C397.48 676.858 397.48 676.858 398.974 676.86C400.011 676.857 401.048 676.854 402.116 676.851C405.607 676.842 409.099 676.84 412.59 676.839C415.087 676.834 417.583 676.829 420.08 676.824C426.875 676.811 433.671 676.804 440.467 676.8C444.712 676.797 448.957 676.793 453.202 676.788C464.958 676.776 476.715 676.766 488.472 676.762C489.601 676.762 489.601 676.762 490.753 676.762C491.884 676.761 491.884 676.761 493.039 676.761C494.567 676.761 496.096 676.76 497.625 676.76C498.383 676.76 499.141 676.759 499.923 676.759C512.199 676.755 524.475 676.738 536.751 676.714C549.36 676.691 561.969 676.678 574.578 676.677C581.655 676.676 588.732 676.67 595.809 676.652C602.47 676.635 609.131 676.634 615.791 676.642C618.233 676.643 620.676 676.639 623.118 676.629C626.458 676.616 629.797 676.622 633.137 676.633C634.098 676.624 635.059 676.616 636.049 676.608C648.3 676.697 657.295 680.777 666.23 689.07C673.795 696.989 678.105 706.292 678.147 717.24C678.158 719.164 678.158 719.164 678.169 721.126C678.172 722.546 678.174 723.965 678.177 725.385C678.183 726.881 678.19 728.378 678.197 729.875C678.218 734.79 678.228 739.706 678.238 744.621C678.242 746.317 678.246 748.013 678.251 749.709C678.27 757.684 678.284 765.658 678.292 773.632C678.302 782.814 678.328 791.996 678.369 801.178C678.399 808.288 678.414 815.398 678.417 822.508C678.419 826.748 678.428 830.988 678.454 835.228C678.477 839.224 678.481 843.22 678.471 847.217C678.47 848.674 678.476 850.131 678.49 851.588C678.624 866.552 675.864 877.864 665.344 888.707C655.006 898.338 643.173 900.365 629.548 899.899C626.616 899.799 623.684 899.723 620.752 899.646C619.173 899.604 617.595 899.561 616.016 899.517C605.812 899.234 595.606 899.113 585.399 898.984C575.494 898.857 565.596 898.68 555.695 898.344C512.5 894.742 512.5 894.742 474.081 909.788C467.697 915.874 462.676 922.83 458.081 930.32C454.37 936.089 449.194 941.903 443 945C438.819 945.394 436.691 945.45 433.125 943.125C429.4 939.4 429.807 936.011 429.719 931C429.7 930.209 429.682 929.417 429.663 928.602C429.584 925.208 429.517 921.815 429.448 918.422C429.396 915.948 429.339 913.474 429.281 911C429.268 910.229 429.254 909.458 429.24 908.664C429.226 904.702 429.226 904.702 428 901C426.978 900.991 425.955 900.981 424.902 900.972C421.045 900.931 417.189 900.865 413.333 900.792C411.676 900.765 410.019 900.743 408.362 900.729C392.557 900.586 379.237 898.56 367.227 887.344C357.047 876.389 355.698 863.599 355.709 849.313C355.703 847.832 355.697 846.352 355.689 844.871C355.672 840.866 355.667 836.862 355.666 832.858C355.664 830.351 355.66 827.844 355.655 825.338C355.636 816.578 355.628 807.819 355.629 799.059C355.631 790.917 355.61 782.775 355.578 774.633C355.552 767.623 355.541 760.613 355.542 753.603C355.543 749.424 355.537 745.246 355.516 741.068C355.496 737.136 355.497 733.203 355.511 729.271C355.513 727.835 355.508 726.4 355.496 724.965C355.388 711.272 358.67 699.161 368 688.773C374.678 682.405 383.866 676.884 393.324 676.869Z" fill="#FCFCFD"/>
<path d="M391 1017C397.401 1020.54 402.708 1025.19 407.812 1030.37C408.844 1031.42 408.844 1031.42 409.897 1032.48C431.132 1054.41 445.591 1081.83 454 1111C454.227 1111.78 454.455 1112.56 454.689 1113.37C457.81 1124.61 458.36 1135.77 458.375 1147.37C458.377 1148.05 458.379 1148.72 458.381 1149.41C458.377 1161.99 457.074 1174.23 453.75 1186.37C453.531 1187.18 453.312 1187.99 453.086 1188.82C449.54 1201.53 444.529 1213.28 438.875 1225.19C438.102 1226.82 438.102 1226.82 437.314 1228.48C436.816 1229.51 436.318 1230.54 435.805 1231.61C435.361 1232.52 434.917 1233.44 434.46 1234.39C432.042 1238.71 430.361 1241.55 425.562 1243.12C422 1243 422 1243 419.509 1240.87C417.02 1238.02 415.17 1235.27 413.293 1231.99C412.799 1231.14 412.799 1231.14 412.296 1230.28C411.252 1228.48 410.219 1226.68 409.188 1224.87C404.768 1217.17 400.238 1209.71 394.913 1202.57C367.536 1165.75 346.856 1124.2 353.769 1077.13C354.376 1073.71 355.142 1070.36 356 1067C356.199 1066.21 356.397 1065.42 356.602 1064.6C359.693 1052.64 363.905 1041.74 370 1031C370.612 1029.91 371.225 1028.83 371.855 1027.71C376.525 1019.9 380.974 1013.54 391 1017Z" fill="#2463EF"/>
<path d="M650 1016C662.286 1021.89 668.837 1041.09 673.25 1053.25C674.234 1056.15 675.138 1059.06 676 1062C676.212 1062.71 676.423 1063.43 676.642 1064.17C682.576 1085.29 682.993 1112.1 676 1133C675.786 1133.66 675.571 1134.32 675.351 1135C673.776 1139.76 671.964 1144.39 670 1149C669.711 1149.68 669.423 1150.36 669.125 1151.06C661.392 1168.94 650.585 1184.82 639.533 1200.79C633.288 1209.81 627.41 1218.85 622.13 1228.48C619.263 1233.66 616.222 1238.78 612 1243C609.313 1243.5 609.313 1243.5 606 1243C600.458 1237.53 597.342 1231.32 594.063 1224.31C593.541 1223.21 593.02 1222.11 592.482 1220.97C574.46 1182.15 568.724 1140 582.951 1098.87C592.573 1072.67 607.056 1050.38 626 1030C626.659 1029.28 627.317 1028.55 627.996 1027.8C633.422 1022.06 641.458 1014.06 650 1016Z" fill="#2463EF"/>
<path d="M600.816 714.391C607.702 719.465 612.96 726.686 614.374 735.272C614.515 737.646 614.541 739.991 614.518 742.368C614.525 743.258 614.532 744.147 614.539 745.063C614.556 747.976 614.545 750.888 614.531 753.801C614.534 755.844 614.538 757.888 614.543 759.931C614.549 764.206 614.54 768.479 614.521 772.754C614.499 778.204 614.512 783.653 614.536 789.104C614.55 793.322 614.546 797.541 614.535 801.759C614.533 803.767 614.536 805.775 614.545 807.783C614.608 824.908 612.683 838.231 600.066 850.949C596.043 854.523 592.94 857.1 587.375 856.813C584 856 584 856 582 853C581.673 851.322 581.409 849.632 581.188 847.938C579.274 837.069 574.163 830.587 566.328 823.25C564 821 564 821 563 819C562.613 819.503 562.225 820.007 561.826 820.525C560.032 822.852 558.235 825.176 556.438 827.5C555.828 828.292 555.219 829.083 554.592 829.898C545.415 841.746 534.593 854.965 519 858C517.209 858.095 515.414 858.138 513.621 858.145C512.009 858.155 512.009 858.155 510.365 858.165C508.634 858.166 508.634 858.166 506.867 858.168C505.085 858.173 505.085 858.173 503.267 858.178C500.757 858.183 498.247 858.185 495.737 858.185C491.883 858.188 488.03 858.206 484.176 858.225C481.74 858.228 479.303 858.23 476.867 858.23C475.13 858.241 475.13 858.241 473.357 858.252C471.755 858.248 471.755 858.248 470.121 858.243C469.178 858.244 468.235 858.246 467.264 858.247C465 858 465 858 463 856C462.382 852.885 462.512 850.837 464.127 848.067C465.765 845.834 467.484 843.695 469.25 841.563C470.201 840.379 470.201 840.379 471.171 839.171C473.102 836.771 475.051 834.386 477 832C478.594 830.018 480.182 828.031 481.769 826.043C482.756 824.806 483.746 823.57 484.737 822.336C488.313 817.883 491.814 813.377 495.284 808.84C499.673 803.107 504.14 797.437 508.609 791.766C510.909 788.846 513.204 785.923 515.5 783C516.417 781.833 517.333 780.667 518.25 779.5C518.704 778.923 519.158 778.345 519.625 777.75C524.667 771.333 529.708 764.917 534.75 758.5C535.204 757.923 535.657 757.345 536.125 756.751C537.043 755.582 537.961 754.414 538.879 753.246C541.15 750.357 543.418 747.466 545.68 744.57C548.441 741.037 551.216 737.515 554 734C554.55 733.305 555.101 732.609 555.668 731.893C557.397 729.715 559.135 727.544 560.875 725.375C561.678 724.362 561.678 724.362 562.498 723.329C572.233 711.261 586.425 705.978 600.816 714.391Z" fill="#2463EF"/>
<path d="M510.038 710.513C513.784 710.563 517.528 710.574 521.273 710.58C523.656 710.594 526.039 710.61 528.422 710.629C529.541 710.634 530.659 710.64 531.812 710.645C533.36 710.669 533.36 710.669 534.94 710.694C535.848 710.704 536.755 710.715 537.69 710.726C540 711 540 711 543 713C543.64 716.852 543.25 718.593 541.199 721.937C540.37 722.948 539.541 723.959 538.688 725C538.238 725.558 537.789 726.115 537.326 726.69C536.374 727.871 535.417 729.047 534.454 730.219C532.576 732.519 530.748 734.857 528.921 737.197C527.547 738.957 526.167 740.712 524.785 742.465C522.02 745.974 519.26 749.487 516.5 753C515.583 754.167 514.667 755.333 513.75 756.5C513.296 757.077 512.843 757.655 512.375 758.25C507.333 764.667 502.292 771.083 497.25 777.5C496.796 778.078 496.342 778.656 495.874 779.251C494.96 780.414 494.046 781.578 493.132 782.741C490.801 785.707 488.472 788.673 486.145 791.641C483.853 794.562 481.557 797.479 479.259 800.395C478.069 801.912 476.888 803.436 475.707 804.961C475.02 805.84 474.333 806.719 473.625 807.625C473.04 808.38 472.455 809.136 471.852 809.914C465.524 817.043 458.444 818.482 449.223 819.359C434.922 819.866 421.183 816.36 410.387 806.531C408.067 804.074 406.94 801.821 405.875 798.625C406.14 790.938 412.808 784.503 417.438 778.687C426.095 767.681 434.397 756.425 442.559 745.047C443.137 744.242 443.715 743.437 444.31 742.607C445.398 741.09 446.482 739.571 447.563 738.049C452.392 731.301 457.102 725.213 463.938 720.375C464.916 719.661 465.894 718.947 466.902 718.211C480.757 710.188 494.401 710.3 510.038 710.513Z" fill="#2463EF"/>
<path d="M640.586 414.477C650.482 420.985 656.626 428.552 660 440C662.182 451.168 660.644 461.031 654.812 470.812C647.996 480.683 638.928 486.716 627 489C614.322 490.061 603.877 487.103 594 479C585.475 470.864 581.068 461.382 580.688 449.625C580.969 437.64 586.058 427.526 594.562 419.187C607.386 408.393 625.843 406.058 640.586 414.477Z" fill="#FCFCFD"/>
<path d="M746 493C746.33 493 746.66 493 747 493C747.027 495.396 747.047 497.792 747.062 500.188C747.071 500.861 747.079 501.535 747.088 502.229C747.106 505.954 746.893 509.379 746 513C743.441 510.441 743.739 508.728 743.727 505.234C743.734 504.497 743.742 503.76 743.75 503C743.742 502.263 743.735 501.525 743.727 500.766C743.747 495.253 743.747 495.253 746 493Z" fill="#336DF1"/>
<path d="M119 918C120.108 921.325 119.845 923.622 119 927C118.34 927 117.68 927 117 927C116.67 927.99 116.34 928.98 116 930C116.857 921.429 116.857 921.429 119 918Z" fill="#134DF1"/>
<path d="M582 1104C582.977 1107.04 583.106 1108.98 582 1112C581.34 1112.66 580.68 1113.32 580 1114C580.14 1112.52 580.288 1111.04 580.438 1109.56C580.519 1108.74 580.6 1107.92 580.684 1107.07C581 1105 581 1105 582 1104Z" fill="#1C54F0"/>
</svg>
